<svg version="1.1" id="Layer_1" xmlns="http://www.w3.org/2000/svg" xmlns:xlink="http://www.w3.org/1999/xlink" x="0px" y="0px"
	 width="100%" viewBox="0 0 1254 1254" enable-background="new 0 0 1254 1254" xml:space="preserve">
<path fill="#FEFEFE" opacity="1.000000" stroke="none" 
	d="
M707.000000,1255.000000 
	C471.333344,1255.000000 236.166672,1255.000000 1.000000,1255.000000 
	C1.000000,837.000000 1.000000,419.000000 1.000000,1.000000 
	C419.000000,1.000000 837.000000,1.000000 1255.000000,1.000000 
	C1255.000000,419.000000 1255.000000,837.000000 1255.000000,1255.000000 
	C1072.500000,1255.000000 890.000000,1255.000000 707.000000,1255.000000 
M220.112534,661.327881 
	C220.526108,663.448364 220.910507,665.575073 221.357468,667.688477 
	C234.992905,732.164612 262.433472,790.152222 303.302979,841.804016 
	C346.095154,895.885681 399.137177,936.990601 461.861542,965.345337 
	C548.499451,1004.510254 638.288452,1013.170898 730.093445,988.026917 
	C835.746887,959.090210 918.808105,897.850708 977.386353,805.246582 
	C1030.248413,721.678955 1050.541992,630.127441 1038.140259,531.697083 
	C1033.387695,493.977386 1023.388916,457.676544 1007.784058,423.018951 
	C968.991882,336.863434 909.117859,269.613129 826.018250,224.211121 
	C745.618469,180.284195 659.677124,164.781738 568.766235,177.767868 
	C518.967041,184.881393 471.942383,200.454498 427.990967,224.751999 
	C344.739746,270.775421 284.666443,338.338623 246.233887,424.915009 
	C212.696808,500.463379 205.334122,579.347290 220.112534,661.327881 
z"/>
<path fill="#D85C1D" opacity="1.000000" stroke="none" 
	d="
M220.069962,660.901306 
	C205.334122,579.347290 212.696808,500.463379 246.233887,424.915009 
	C284.666443,338.338623 344.739746,270.775421 427.990967,224.751999 
	C471.942383,200.454498 518.967041,184.881393 568.766235,177.767868 
	C659.677124,164.781738 745.618469,180.284195 826.018250,224.211121 
	C909.117859,269.613129 968.991882,336.863434 1007.784058,423.018951 
	C1023.388916,457.676544 1033.387695,493.977386 1038.140259,531.697083 
	C1050.541992,630.127441 1030.248413,721.678955 977.386353,805.246582 
	C918.808105,897.850708 835.746887,959.090210 730.093445,988.026917 
	C638.288452,1013.170898 548.499451,1004.510254 461.861542,965.345337 
	C399.137177,936.990601 346.095154,895.885681 303.302979,841.804016 
	C262.433472,790.152222 234.992905,732.164612 221.357468,667.688477 
	C220.910507,665.575073 220.526108,663.448364 220.069962,660.901306 
M692.075134,634.999268 
	C661.764038,635.001404 631.452820,634.976074 601.142090,635.078003 
	C599.435486,635.083679 597.732483,636.135925 595.237549,636.957153 
	C574.380371,639.941650 558.718323,650.360229 549.410706,669.493103 
	C543.616577,681.403503 542.745911,694.014771 544.594727,707.369080 
	C544.586731,708.630310 544.229004,710.016663 544.627930,711.132385 
	C547.060730,717.935547 548.965149,725.051819 552.343811,731.369507 
	C562.666809,750.672302 578.595642,761.820862 601.023254,761.958008 
	C630.164673,762.136230 659.308411,762.088196 688.449707,761.908203 
	C692.747620,761.881653 694.140808,762.885132 694.111694,767.412415 
	C693.910400,798.718445 693.988525,830.026367 694.051697,861.333557 
	C694.055542,863.220215 694.701355,865.105591 695.151306,867.833618 
	C693.029358,876.193909 691.849060,884.938843 688.619202,892.846680 
	C676.010742,923.716858 651.813477,942.284119 621.489136,953.813599 
	C609.113464,958.518982 596.264465,961.170654 582.915161,961.223938 
	C583.573730,961.636475 584.198242,961.824890 584.835571,961.891907 
	C675.139648,971.395203 758.297302,951.332214 833.989990,901.146423 
	C892.855225,862.117554 937.603455,810.510437 968.154114,746.920044 
	C996.263062,688.411926 1007.943237,626.486450 1004.075317,561.662170 
	C1001.868713,524.680237 994.730530,488.682800 981.170593,454.187286 
	C954.896851,387.348999 913.622559,331.643890 855.976318,288.490387 
	C798.390503,245.382156 733.897217,219.716324 662.093872,213.274445 
	C605.513672,208.198288 550.237427,215.000107 497.045715,234.911942 
	C396.879822,272.408081 324.637085,340.588074 280.613434,437.758148 
	C252.114487,500.661713 244.178986,567.118774 253.287704,635.537842 
	C260.541687,690.025024 279.361511,740.325317 308.815765,786.677917 
	C310.844391,789.870361 313.304962,792.788391 316.173889,795.722595 
	C316.443481,794.162842 316.948090,792.603271 316.948944,791.043396 
	C316.991302,713.236694 316.997986,635.429993 316.950043,557.623291 
	C316.948883,555.739624 316.286591,553.856384 315.793182,551.173828 
	C319.031830,534.253784 332.668182,521.663330 347.607635,522.072876 
	C348.930328,534.700867 355.557617,543.064026 368.434326,547.215759 
	C370.194824,547.475708 371.955231,547.962341 373.715820,547.963074 
	C464.754974,547.998230 555.794128,547.997742 646.833313,547.948669 
	C648.557495,547.947693 650.281250,547.320312 652.846802,546.814270 
	C672.036804,548.924866 685.143555,558.950012 691.474548,577.107666 
	C691.200256,577.274170 690.676575,577.569397 690.686768,577.589111 
	C694.150696,584.297729 692.987122,591.518921 693.008850,598.594910 
	C693.046082,610.725525 693.015991,622.856323 692.075134,634.999268 
z"/>
<path fill="#FEFDFC" opacity="1.000000" stroke="none" 
	d="
M545.204346,706.927307 
	C542.745911,694.014771 543.616577,681.403503 549.410706,669.493103 
	C558.718323,650.360229 574.380371,639.941650 596.096558,636.882446 
	C610.614075,636.775085 624.272705,636.764832 637.931030,636.704468 
	C656.246155,636.623596 674.561096,636.503845 693.258789,636.548950 
	C694.361755,635.361572 695.690063,634.033936 695.707642,632.689209 
	C695.872925,620.065308 696.199951,607.421753 695.651489,594.819885 
	C695.390930,588.833740 693.337341,582.925537 692.096069,576.982056 
	C685.143555,558.950012 672.036804,548.924866 651.965820,546.800476 
	C576.872498,546.763916 502.660187,546.760620 428.447876,546.705811 
	C408.319427,546.690979 388.191101,546.520508 368.062714,546.421509 
	C355.557617,543.064026 348.930328,534.700867 347.607635,522.072876 
	C332.668182,521.663330 319.031830,534.253784 315.741516,551.977417 
	C315.555450,555.269897 315.304413,557.758667 315.303650,560.247620 
	C315.282227,628.468140 315.274658,696.688660 315.298492,764.909180 
	C315.302124,775.217468 315.471802,785.525757 315.564667,795.834045 
	C313.304962,792.788391 310.844391,789.870361 308.815765,786.677917 
	C279.361511,740.325317 260.541687,690.025024 253.287704,635.537842 
	C244.178986,567.118774 252.114487,500.661713 280.613434,437.758148 
	C324.637085,340.588074 396.879822,272.408081 497.045715,234.911942 
	C550.237427,215.000107 605.513672,208.198288 662.093872,213.274445 
	C733.897217,219.716324 798.390503,245.382156 855.976318,288.490387 
	C913.622559,331.643890 954.896851,387.348999 981.170593,454.187286 
	C994.730530,488.682800 1001.868713,524.680237 1004.075317,561.662170 
	C1007.943237,626.486450 996.263062,688.411926 968.154114,746.920044 
	C937.603455,810.510437 892.855225,862.117554 833.989990,901.146423 
	C758.297302,951.332214 675.139648,971.395203 584.835571,961.891907 
	C584.198242,961.824890 583.573730,961.636475 582.915161,961.223938 
	C596.264465,961.170654 609.113464,958.518982 621.489136,953.813599 
	C651.813477,942.284119 676.010742,923.716858 688.619202,892.846680 
	C691.849060,884.938843 693.029358,876.193909 695.233276,867.031067 
	C695.458496,864.071533 695.723083,861.914673 695.726685,859.757507 
	C695.783325,825.637634 695.806580,791.517822 695.837036,757.397949 
	C695.838745,755.455139 695.837219,753.512329 695.837219,751.123230 
	C693.554810,751.123230 691.933289,751.123657 690.311829,751.123169 
	C660.519104,751.114380 630.721191,751.407654 600.937378,750.888306 
	C593.303894,750.755127 585.278320,749.149963 578.191895,746.320251 
	C560.404846,739.217773 550.184326,725.103455 545.204346,706.927307 
M457.000000,416.001221 
	C457.000000,416.001221 457.027985,416.033905 457.753693,416.015869 
	C470.567841,409.447876 483.381989,402.879852 496.872101,396.079865 
	C508.398315,390.111542 519.915955,384.126526 531.453125,378.179565 
	C543.233521,372.107208 543.241943,372.123566 538.380005,359.601624 
	C534.058411,348.471222 523.889160,344.924011 513.750000,351.204590 
	C458.698669,385.305603 403.669006,419.441650 348.659210,453.609650 
	C340.666260,458.574341 338.061340,467.215942 341.944763,475.744965 
	C349.463806,492.258728 357.127167,508.706726 364.675537,525.207214 
	C366.121338,528.367737 368.137726,530.465393 372.630035,530.557251 
	C383.979919,530.557251 395.329834,530.557251 407.486359,530.557251 
	C401.501099,514.882019 395.788879,499.921875 390.040863,484.176086 
	C389.560547,482.587769 389.060883,481.005005 388.602997,479.410248 
	C384.899078,466.509735 390.222229,452.166290 401.731689,445.809143 
	C419.005341,436.268188 436.516785,427.157745 454.574615,417.903046 
	C455.392334,417.278961 456.210083,416.654846 457.000000,416.001221 
M714.042725,663.294250 
	C711.085876,655.757385 707.213562,652.757874 699.516724,652.747131 
	C666.042725,652.700562 632.566284,652.537659 599.095276,652.874695 
	C577.027161,653.096802 559.072815,672.107056 559.307983,694.138916 
	C559.551270,716.940247 577.775574,735.332336 600.241699,735.376953 
	C621.891541,735.419983 643.541565,735.405579 665.191467,735.395874 
	C676.682251,735.390747 688.175537,735.477661 699.662964,735.267395 
	C707.945007,735.115784 712.988831,730.614441 714.289551,722.106140 
	C714.181030,702.743530 714.072510,683.380920 714.042725,663.294250 
M517.125732,530.678650 
	C536.699646,530.711548 556.273621,530.778076 575.847473,530.755066 
	C581.138367,530.748840 586.429016,530.471375 592.636963,530.653015 
	C595.292603,530.735535 597.947754,530.844666 600.603943,530.896362 
	C622.354309,531.319214 644.104797,531.731323 666.347778,532.654297 
	C677.445618,537.068481 688.002319,542.351440 696.178406,551.625977 
	C691.246704,534.281128 686.058777,517.311890 680.599854,500.430389 
	C666.065918,455.484497 651.401245,410.580902 636.820679,365.650085 
	C633.121033,354.249390 622.646973,349.680573 611.773926,355.067108 
	C602.081726,359.868622 592.520264,364.934814 582.917725,369.916260 
	C526.195923,399.341339 469.471375,428.761047 412.769592,458.224609 
	C405.239319,462.137512 402.162750,469.578461 404.970154,477.634155 
	C410.768463,494.272125 416.737335,510.852539 422.886841,527.363220 
	C423.444946,528.861633 425.778351,530.594177 427.355103,530.662842 
	C434.163269,530.959412 440.996704,530.676819 448.761688,530.794067 
	C467.639404,530.823914 486.517120,530.879333 505.394775,530.861389 
	C509.017792,530.857971 512.640503,530.565918 517.125732,530.678650 
M855.256165,493.114624 
	C853.466370,486.842712 850.104736,484.274353 843.223572,484.241486 
	C830.228516,484.179382 817.233032,484.196960 804.237793,484.234222 
	C795.328674,484.259766 791.024414,488.514526 790.987366,497.385254 
	C790.935181,509.880493 790.975220,522.376099 790.977661,534.871582 
	C791.000977,655.660889 791.024536,776.450195 791.047974,897.239502 
	C791.048340,899.095581 791.048035,900.951599 791.048035,904.278076 
	C801.609497,897.736023 811.069153,892.462952 819.884583,886.272400 
	C831.838379,877.877930 843.298706,868.780701 855.548889,859.392029 
	C855.619324,858.398804 855.751343,857.405640 855.751404,856.412415 
	C855.760437,737.195190 855.761841,617.978027 855.736572,498.760834 
	C855.736206,497.129761 855.392395,495.498718 855.256165,493.114624 
M870.725037,790.500000 
	C870.725037,808.661682 870.725037,826.823303 870.725037,845.969360 
	C875.130371,841.617371 878.646606,838.340149 881.943176,834.855164 
	C901.947815,813.707642 919.531555,790.742126 933.567627,765.184631 
	C935.019836,762.540344 936.022827,759.255310 936.026001,756.266296 
	C936.143799,645.960876 936.124634,535.655334 936.103455,425.349762 
	C936.101501,415.310791 932.135742,411.324158 922.242188,411.299133 
	C910.245239,411.268829 898.248108,411.268616 886.251282,411.312408 
	C873.761780,411.357971 870.760742,414.460663 870.759766,427.091064 
	C870.750610,547.894043 870.736328,668.697021 870.725037,790.500000 
M710.991089,864.338745 
	C708.739441,896.108643 695.206238,922.274780 671.091553,943.152405 
	C671.924683,943.646912 672.195679,943.951050 672.430542,943.925293 
	C675.565125,943.582153 678.730347,943.378479 681.820068,942.786316 
	C712.843689,936.840576 742.621399,927.041321 771.355225,913.941772 
	C774.938721,912.308105 776.053467,910.294556 776.044617,906.382263 
	C775.910217,847.057190 775.958374,787.731567 775.960571,728.406128 
	C775.962524,676.246399 775.966553,624.086609 775.953796,571.926880 
	C775.951660,563.354797 771.636597,559.052490 763.079651,559.038025 
	C750.081360,559.015991 737.082825,558.972229 724.084961,559.040588 
	C715.484131,559.085876 711.033508,563.504700 711.020569,571.912598 
	C710.988770,592.576416 711.064697,613.240662 710.948608,633.903931 
	C710.930786,637.068604 711.641113,638.941345 714.752930,640.495300 
	C724.973328,645.599243 729.752075,654.499451 729.918335,665.603333 
	C730.200195,684.429932 730.202942,703.267151 729.910339,722.093445 
	C729.738342,733.157349 725.058899,742.153992 714.925110,747.362122 
	C711.630737,749.055237 710.996643,751.085144 711.003906,754.389648 
	C711.083618,790.717896 711.033142,827.046387 710.991089,864.338745 
z"/>
<path fill="#C95A23" opacity="1.000000" stroke="none" 
	d="
M544.899536,707.148193 
	C550.184326,725.103455 560.404846,739.217773 578.191895,746.320251 
	C585.278320,749.149963 593.303894,750.755127 600.937378,750.888306 
	C630.721191,751.407654 660.519104,751.114380 690.311829,751.123169 
	C691.933289,751.123657 693.554810,751.123230 695.837219,751.123230 
	C695.837219,753.512329 695.838745,755.455139 695.837036,757.397949 
	C695.806580,791.517822 695.783325,825.637634 695.726685,859.757507 
	C695.723083,861.914673 695.458496,864.071533 695.181824,866.610046 
	C694.701355,865.105591 694.055542,863.220215 694.051697,861.333557 
	C693.988525,830.026367 693.910400,798.718445 694.111694,767.412415 
	C694.140808,762.885132 692.747620,761.881653 688.449707,761.908203 
	C659.308411,762.088196 630.164673,762.136230 601.023254,761.958008 
	C578.595642,761.820862 562.666809,750.672302 552.343811,731.369507 
	C548.965149,725.051819 547.060730,717.935547 544.627930,711.132385 
	C544.229004,710.016663 544.586731,708.630310 544.899536,707.148193 
z"/>
<path fill="#D44605" opacity="1.000000" stroke="none" 
	d="
M315.869263,795.778320 
	C315.471802,785.525757 315.302124,775.217468 315.298492,764.909180 
	C315.274658,696.688660 315.282227,628.468140 315.303650,560.247620 
	C315.304413,557.758667 315.555450,555.269897 315.811279,552.376953 
	C316.286591,553.856384 316.948883,555.739624 316.950043,557.623291 
	C316.997986,635.429993 316.991302,713.236694 316.948944,791.043396 
	C316.948090,792.603271 316.443481,794.162842 315.869263,795.778320 
z"/>
<path fill="#D54A0A" opacity="1.000000" stroke="none" 
	d="
M368.248535,546.818604 
	C388.191101,546.520508 408.319427,546.690979 428.447876,546.705811 
	C502.660187,546.760620 576.872498,546.763916 651.545044,546.885925 
	C650.281250,547.320312 648.557495,547.947693 646.833313,547.948669 
	C555.794128,547.997742 464.754974,547.998230 373.715820,547.963074 
	C371.955231,547.962341 370.194824,547.475708 368.248535,546.818604 
z"/>
<path fill="#D54A0A" opacity="1.000000" stroke="none" 
	d="
M692.876160,636.400757 
	C674.561096,636.503845 656.246155,636.623596 637.931030,636.704468 
	C624.272705,636.764832 610.614075,636.775085 596.491699,636.754395 
	C597.732483,636.135925 599.435486,635.083679 601.142090,635.078003 
	C631.452820,634.976074 661.764038,635.001404 692.540039,635.230835 
	C692.914673,635.768738 692.871704,636.081543 692.876160,636.400757 
z"/>
<path fill="#E06E3D" opacity="1.000000" stroke="none" 
	d="
M693.258789,636.548950 
	C692.871704,636.081543 692.914673,635.768738 693.009521,635.224731 
	C693.015991,622.856323 693.046082,610.725525 693.008850,598.594910 
	C692.987122,591.518921 694.150696,584.297729 690.686768,577.589111 
	C690.676575,577.569397 691.200256,577.274170 691.785278,577.044861 
	C693.337341,582.925537 695.390930,588.833740 695.651489,594.819885 
	C696.199951,607.421753 695.872925,620.065308 695.707642,632.689209 
	C695.690063,634.033936 694.361755,635.361572 693.258789,636.548950 
z"/>
<path fill="#D85C1D" opacity="1.000000" stroke="none" 
	d="
M870.724304,790.000000 
	C870.736328,668.697021 870.750610,547.894043 870.759766,427.091064 
	C870.760742,414.460663 873.761780,411.357971 886.251282,411.312408 
	C898.248108,411.268616 910.245239,411.268829 922.242188,411.299133 
	C932.135742,411.324158 936.101501,415.310791 936.103455,425.349762 
	C936.124634,535.655334 936.143799,645.960876 936.026001,756.266296 
	C936.022827,759.255310 935.019836,762.540344 933.567627,765.184631 
	C919.531555,790.742126 901.947815,813.707642 881.943176,834.855164 
	C878.646606,838.340149 875.130371,841.617371 870.725037,845.969360 
	C870.725037,826.823303 870.725037,808.661682 870.724304,790.000000 
z"/>
<path fill="#A7896A" opacity="1.000000" stroke="none" 
	d="
M854.970703,859.984863 
	C843.298706,868.780701 831.838379,877.877930 819.884583,886.272400 
	C811.069153,892.462952 801.609497,897.736023 791.048035,904.278076 
	C791.048035,900.951599 791.048340,899.095581 791.047974,897.239502 
	C791.024536,776.450195 791.000977,655.660889 790.977661,534.871582 
	C790.975220,522.376099 790.935181,509.880493 790.987366,497.385254 
	C791.024414,488.514526 795.328674,484.259766 804.237793,484.234222 
	C817.233032,484.196960 830.228516,484.179382 843.223572,484.241486 
	C850.104736,484.274353 853.466370,486.842712 854.903198,493.777191 
	C854.369019,496.071167 854.029419,497.702545 854.029053,499.333984 
	C854.003906,617.816406 854.001709,736.298767 854.045471,854.781189 
	C854.046082,856.515869 854.648865,858.250305 854.970703,859.984863 
z"/>
<path fill="#D2BEA6" opacity="1.000000" stroke="none" 
	d="
M711.004578,863.856812 
	C711.033142,827.046387 711.083618,790.717896 711.003906,754.389648 
	C710.996643,751.085144 711.630737,749.055237 714.925110,747.362122 
	C725.058899,742.153992 729.738342,733.157349 729.910339,722.093445 
	C730.202942,703.267151 730.200195,684.429932 729.918335,665.603333 
	C729.752075,654.499451 724.973328,645.599243 714.752930,640.495300 
	C711.641113,638.941345 710.930786,637.068604 710.948608,633.903931 
	C711.064697,613.240662 710.988770,592.576416 711.020569,571.912598 
	C711.033508,563.504700 715.484131,559.085876 724.084961,559.040588 
	C737.082825,558.972229 750.081360,559.015991 763.079651,559.038025 
	C771.636597,559.052490 775.951660,563.354797 775.953796,571.926880 
	C775.966553,624.086609 775.962524,676.246399 775.960571,728.406128 
	C775.958374,787.731567 775.910217,847.057190 776.044617,906.382263 
	C776.053467,910.294556 774.938721,912.308105 771.355225,913.941772 
	C742.621399,927.041321 712.843689,936.840576 681.820068,942.786316 
	C678.730347,943.378479 675.565125,943.582153 672.430542,943.925293 
	C672.195679,943.951050 671.924683,943.646912 671.091553,943.152405 
	C695.206238,922.274780 708.739441,896.108643 711.004578,863.856812 
z"/>
<path fill="#D3BFA7" opacity="1.000000" stroke="none" 
	d="
M665.855286,532.146729 
	C644.104797,531.731323 622.354309,531.319214 600.603943,530.896362 
	C597.947754,530.844666 595.292603,530.735535 592.261108,530.137207 
	C595.963501,515.775574 594.659363,502.822571 585.936707,490.874298 
	C571.349182,470.892334 538.542542,470.750671 523.629822,490.521637 
	C514.453125,502.687866 512.190857,515.906372 516.263367,530.407104 
	C512.640503,530.565918 509.017792,530.857971 505.394775,530.861389 
	C486.517120,530.879333 467.639404,530.823914 448.344238,530.345642 
	C445.013947,521.261902 442.101135,512.626648 439.074554,503.654053 
	C446.126740,499.756775 451.446075,493.983521 453.522217,486.479279 
	C455.548462,479.155457 455.812012,471.343964 456.988098,462.730774 
	C472.320831,454.690247 489.087280,445.849884 505.897522,437.093597 
	C531.873779,423.562805 557.902039,410.131714 583.844971,396.537415 
	C587.032349,394.867218 588.809448,394.868317 591.219727,398.089203 
	C598.833069,408.263245 609.267334,412.466400 621.852722,410.422729 
	C624.849731,409.936066 626.110168,410.573761 626.972534,413.321747 
	C628.811096,419.180573 630.865417,424.971436 632.810242,430.797211 
	C643.496216,462.806824 654.186401,494.815033 664.827881,526.839478 
	C665.391296,528.535095 665.522766,530.374329 665.855286,532.146729 
z"/>
<path fill="#AF9272" opacity="1.000000" stroke="none" 
	d="
M666.101562,532.400513 
	C665.522766,530.374329 665.391296,528.535095 664.827881,526.839478 
	C654.186401,494.815033 643.496216,462.806824 632.810242,430.797211 
	C630.865417,424.971436 628.811096,419.180573 626.972534,413.321747 
	C626.110168,410.573761 624.849731,409.936066 621.852722,410.422729 
	C609.267334,412.466400 598.833069,408.263245 591.219727,398.089203 
	C588.809448,394.868317 587.032349,394.867218 583.844971,396.537415 
	C557.902039,410.131714 531.873779,423.562805 505.897522,437.093597 
	C489.087280,445.849884 472.320831,454.690247 456.988098,462.730774 
	C455.812012,471.343964 455.548462,479.155457 453.522217,486.479279 
	C451.446075,493.983521 446.126740,499.756775 439.074554,503.654053 
	C442.101135,512.626648 445.013947,521.261902 447.873840,530.251099 
	C440.996704,530.676819 434.163269,530.959412 427.355103,530.662842 
	C425.778351,530.594177 423.444946,528.861633 422.886841,527.363220 
	C416.737335,510.852539 410.768463,494.272125 404.970154,477.634155 
	C402.162750,469.578461 405.239319,462.137512 412.769592,458.224609 
	C469.471375,428.761047 526.195923,399.341339 582.917725,369.916260 
	C592.520264,364.934814 602.081726,359.868622 611.773926,355.067108 
	C622.646973,349.680573 633.121033,354.249390 636.820679,365.650085 
	C651.401245,410.580902 666.065918,455.484497 680.599854,500.430389 
	C686.058777,517.311890 691.246704,534.281128 696.178406,551.625977 
	C688.002319,542.351440 677.445618,537.068481 666.101562,532.400513 
z"/>
<path fill="#D75C1D" opacity="1.000000" stroke="none" 
	d="
M714.047913,723.020630 
	C712.988831,730.614441 707.945007,735.115784 699.662964,735.267395 
	C688.175537,735.477661 676.682251,735.390747 665.191467,735.395874 
	C643.541565,735.405579 621.891541,735.419983 600.241699,735.376953 
	C577.775574,735.332336 559.551270,716.940247 559.307983,694.138916 
	C559.072815,672.107056 577.027161,653.096802 599.095276,652.874695 
	C632.566284,652.537659 666.042725,652.700562 699.516724,652.747131 
	C707.213562,652.757874 711.085876,655.757385 713.716919,663.956299 
	C713.285400,683.533630 713.171387,702.449036 713.115234,721.364502 
	C713.113586,721.915649 713.723267,722.468567 714.047913,723.020630 
M595.491333,710.143066 
	C596.514282,710.701172 597.501587,711.341003 598.565857,711.804321 
	C606.568298,715.287964 615.486389,713.140625 621.182617,706.394714 
	C626.484802,700.115540 627.210510,691.449890 623.013062,684.537354 
	C618.569641,677.219788 609.876221,673.734680 601.421448,675.984253 
	C594.191589,677.907959 589.687012,682.594421 587.806152,689.818298 
	C585.661560,698.054871 588.774170,704.434814 595.491333,710.143066 
z"/>
<path fill="#AF9272" opacity="1.000000" stroke="none" 
	d="
M371.873657,530.218018 
	C368.137726,530.465393 366.121338,528.367737 364.675537,525.207214 
	C357.127167,508.706726 349.463806,492.258728 341.944763,475.744965 
	C338.061340,467.215942 340.666260,458.574341 348.659210,453.609650 
	C403.669006,419.441650 458.698669,385.305603 513.750000,351.204590 
	C523.889160,344.924011 534.058411,348.471222 538.380005,359.601624 
	C543.241943,372.123566 543.233521,372.107208 531.453125,378.179565 
	C519.915955,384.126526 508.398315,390.111542 496.223816,396.007294 
	C494.462006,394.985107 493.348511,394.035461 492.088318,392.960754 
	C481.831696,399.341736 471.687042,405.594879 461.621063,411.972137 
	C459.916473,413.052124 458.550446,414.666443 457.028015,416.033936 
	C457.027985,416.033905 457.000000,416.001221 456.665527,415.983459 
	C455.529755,416.598541 454.728424,417.231384 453.927124,417.864197 
	C436.516785,427.157745 419.005341,436.268188 401.731689,445.809143 
	C390.222229,452.166290 384.899078,466.509735 388.602997,479.410248 
	C389.060883,481.005005 389.560547,482.587769 389.774231,484.758545 
	C386.361511,489.371063 382.961884,493.236969 380.193878,497.511810 
	C379.085083,499.224182 378.502319,502.156952 379.177521,503.979431 
	C381.188324,509.406555 383.936279,514.561157 386.407410,519.816956 
	C387.768280,522.711426 389.151733,525.595154 390.770355,528.999878 
	C387.733490,528.999878 385.572235,528.863342 383.434540,529.029785 
	C379.573486,529.330383 375.726501,529.811951 371.873657,530.218018 
z"/>
<path fill="#A98C6D" opacity="1.000000" stroke="none" 
	d="
M516.694580,530.542847 
	C512.190857,515.906372 514.453125,502.687866 523.629822,490.521637 
	C538.542542,470.750671 571.349182,470.892334 585.936707,490.874298 
	C594.659363,502.822571 595.963501,515.775574 591.802490,529.969849 
	C586.429016,530.471375 581.138367,530.748840 575.847473,530.755066 
	C556.273621,530.778076 536.699646,530.711548 516.694580,530.542847 
z"/>
<path fill="#9E7E5B" opacity="1.000000" stroke="none" 
	d="
M855.259766,859.688477 
	C854.648865,858.250305 854.046082,856.515869 854.045471,854.781189 
	C854.001709,736.298767 854.003906,617.816406 854.029053,499.333984 
	C854.029419,497.702545 854.369019,496.071167 854.879517,494.153717 
	C855.392395,495.498718 855.736206,497.129761 855.736572,498.760834 
	C855.761841,617.978027 855.760437,737.195190 855.751404,856.412415 
	C855.751343,857.405640 855.619324,858.398804 855.259766,859.688477 
z"/>
<path fill="#A5896B" opacity="1.000000" stroke="none" 
	d="
M372.251831,530.387634 
	C375.726501,529.811951 379.573486,529.330383 383.434540,529.029785 
	C385.572235,528.863342 387.733490,528.999878 390.770355,528.999878 
	C389.151733,525.595154 387.768280,522.711426 386.407410,519.816956 
	C383.936279,514.561157 381.188324,509.406555 379.177521,503.979431 
	C378.502319,502.156952 379.085083,499.224182 380.193878,497.511810 
	C382.961884,493.236969 386.361511,489.371063 389.792145,485.151367 
	C395.788879,499.921875 401.501099,514.882019 407.486359,530.557251 
	C395.329834,530.557251 383.979919,530.557251 372.251831,530.387634 
z"/>
<path fill="#CFB9A1" opacity="1.000000" stroke="none" 
	d="
M457.390869,416.024902 
	C458.550446,414.666443 459.916473,413.052124 461.621063,411.972137 
	C471.687042,405.594879 481.831696,399.341736 492.088318,392.960754 
	C493.348511,394.035461 494.462006,394.985107 495.885803,396.123291 
	C483.381989,402.879852 470.567841,409.447876 457.390869,416.024902 
z"/>
<path fill="#D53F00" opacity="1.000000" stroke="none" 
	d="
M714.168701,722.563354 
	C713.723267,722.468567 713.113586,721.915649 713.115234,721.364502 
	C713.171387,702.449036 713.285400,683.533630 713.677551,664.318298 
	C714.072510,683.380920 714.181030,702.743530 714.168701,722.563354 
z"/>
<path fill="#CFB9A1" opacity="1.000000" stroke="none" 
	d="
M454.250854,417.883636 
	C454.728424,417.231384 455.529755,416.598541 456.679443,415.998230 
	C456.210083,416.654846 455.392334,417.278961 454.250854,417.883636 
z"/>
<path fill="#FDFAF9" opacity="1.000000" stroke="none" 
	d="
M595.178528,709.950439 
	C588.774170,704.434814 585.661560,698.054871 587.806152,689.818298 
	C589.687012,682.594421 594.191589,677.907959 601.421448,675.984253 
	C609.876221,673.734680 618.569641,677.219788 623.013062,684.537354 
	C627.210510,691.449890 626.484802,700.115540 621.182617,706.394714 
	C615.486389,713.140625 606.568298,715.287964 598.565857,711.804321 
	C597.501587,711.341003 596.514282,710.701172 595.178528,709.950439 
z"/>
</svg>